<?xml version="1.0" standalone="no"?>
<!DOCTYPE svg PUBLIC "-//W3C//DTD SVG 20010904//EN"
 "http://www.w3.org/TR/2001/REC-SVG-20010904/DTD/svg10.dtd">
<svg version="1.0" xmlns="http://www.w3.org/2000/svg"
 width="1280.000000pt" height="984.000000pt" viewBox="0 0 1280.000000 984.000000"
 preserveAspectRatio="xMidYMid meet">
<metadata>
Created by potrace 1.15, written by Peter Selinger 2001-2017
</metadata>
<g transform="translate(0.000000,984.000000) scale(0.100000,-0.100000)"
fill="#e91e63" stroke="none">
<path d="M10832 9809 c-64 -32 -102 -69 -102 -100 0 -33 49 -152 101 -242 27
-48 52 -102 56 -120 3 -18 25 -75 48 -127 61 -139 80 -194 104 -303 61 -283
39 -776 -49 -1062 -10 -33 -36 -105 -58 -160 -21 -55 -46 -120 -55 -145 -45
-123 -229 -422 -429 -697 -79 -109 -166 -228 -192 -266 -26 -37 -75 -100 -109
-139 -65 -76 -501 -479 -600 -555 l-57 -44 -80 73 c-376 350 -935 542 -1452
500 -464 -38 -835 -194 -1179 -495 -77 -67 -205 -210 -273 -304 -21 -29 -40
-53 -42 -53 -2 0 -29 35 -60 78 -80 109 -311 335 -421 412 -434 303 -933 422
-1445 345 -401 -60 -770 -241 -1068 -524 -47 -44 -87 -81 -90 -81 -39 -1 -578
476 -726 642 -34 37 -99 123 -146 190 -48 68 -134 188 -192 268 -58 80 -113
161 -123 180 -10 19 -32 51 -48 70 -53 62 -192 320 -255 475 -79 193 -103 278
-142 499 -30 168 -33 197 -32 401 0 351 34 477 256 950 101 214 109 236 96
259 -6 10 -37 35 -71 57 -50 33 -69 39 -113 39 -93 0 -206 -74 -387 -257 -194
-195 -297 -362 -332 -535 -3 -16 -34 -63 -70 -105 -89 -107 -134 -188 -146
-264 -13 -80 -30 -111 -99 -184 -32 -33 -71 -83 -88 -111 -16 -27 -46 -72 -67
-100 -51 -66 -135 -245 -177 -374 -32 -103 -33 -108 -32 -281 1 -140 4 -180
17 -200 43 -68 29 -169 -38 -269 -25 -37 -95 -164 -155 -282 l-110 -215 0
-332 0 -332 -61 -71 c-128 -148 -163 -297 -124 -519 25 -145 108 -355 186
-471 22 -33 45 -84 54 -120 42 -168 62 -225 127 -373 67 -152 71 -165 80 -265
22 -264 116 -564 211 -675 45 -53 49 -65 56 -171 7 -89 8 -93 56 -160 27 -38
68 -89 90 -113 58 -64 178 -157 246 -191 32 -17 89 -50 126 -74 145 -93 242
-131 648 -257 159 -49 291 -92 294 -95 3 -2 5 -59 6 -127 2 -140 18 -202 68
-267 68 -89 90 -107 145 -119 64 -13 183 -14 272 -1 36 5 69 5 73 1 5 -5 4
-94 -4 -204 -14 -223 -13 -231 58 -303 77 -79 164 -108 364 -120 60 -4 109 -7
109 -8 0 -1 7 -50 15 -109 22 -164 75 -244 205 -306 80 -38 197 -37 293 2 90
36 109 35 161 -13 23 -22 74 -54 112 -72 l69 -33 186 0 c173 0 189 -2 209 -20
31 -28 159 -34 228 -11 64 22 125 75 147 128 9 23 29 108 45 188 43 215 97
360 134 360 8 0 65 -46 128 -102 432 -387 786 -767 1076 -1155 l106 -143 71 0
71 0 79 113 c258 367 572 724 944 1074 102 95 188 173 192 173 20 0 68 -173
95 -339 26 -166 96 -272 199 -301 66 -19 197 -10 225 15 20 18 36 20 209 20
l186 0 68 32 c37 18 86 51 108 73 49 50 75 51 172 9 65 -29 77 -31 143 -25
129 10 218 52 269 126 47 67 74 149 75 220 0 36 4 70 8 76 16 24 54 34 129 34
161 0 267 31 336 98 92 88 109 190 66 398 -21 104 -22 115 -8 130 15 14 22 14
80 -1 138 -36 369 -2 369 55 0 11 10 28 21 38 76 61 101 138 103 304 1 64 4
119 7 123 4 3 36 13 70 21 35 8 150 41 254 74 105 32 221 67 259 76 132 33
514 245 660 367 100 84 216 250 216 310 0 15 -5 37 -11 50 -14 30 -3 53 88
190 56 84 72 118 108 235 31 100 47 175 59 277 26 216 35 251 97 386 57 125
97 242 119 351 6 32 28 83 51 120 208 334 272 668 169 885 -15 33 -55 89 -89
125 l-61 66 0 332 0 332 -116 229 c-64 126 -135 258 -157 292 l-42 62 1 105
c1 58 9 152 18 210 26 158 23 207 -19 345 -20 66 -45 140 -56 165 -39 91 -176
305 -258 404 -95 116 -104 131 -120 204 -16 77 -74 190 -133 258 -56 66 -70
92 -129 247 -52 138 -117 234 -247 369 -163 169 -354 307 -423 308 -14 0 -53
-14 -87 -31z m258 -359 c19 -10 62 -38 95 -62 250 -185 345 -364 345 -649 0
-80 4 -121 13 -133 13 -17 15 -17 35 9 13 16 32 59 43 97 19 61 23 67 34 51
34 -50 66 -266 69 -463 1 -116 -1 -129 -26 -182 -37 -80 -81 -141 -160 -225
-62 -65 -86 -113 -57 -113 6 0 53 23 105 51 52 28 98 48 101 45 16 -16 -75
-400 -114 -485 -26 -53 -141 -163 -237 -226 -47 -31 -88 -60 -91 -65 -17 -28
107 10 186 57 49 28 63 33 70 22 17 -25 -2 -81 -50 -153 -26 -39 -71 -110
-100 -158 -58 -96 -116 -168 -135 -168 -20 0 -150 -66 -165 -83 -18 -22 -3
-22 59 3 67 26 80 26 80 -5 0 -26 -125 -219 -207 -319 -61 -75 -232 -180 -325
-200 -37 -8 -83 -49 -73 -65 10 -16 66 -8 171 24 43 13 82 21 87 16 10 -10
-168 -205 -265 -290 -64 -56 -85 -68 -162 -92 -71 -22 -88 -24 -93 -13 -3 8
-13 14 -23 14 -26 0 -28 16 -14 111 21 142 28 309 15 357 -11 41 -32 55 -47
31 -3 -6 -12 -85 -19 -175 -12 -160 -13 -166 -54 -250 -22 -47 -64 -119 -93
-161 -48 -70 -212 -265 -227 -270 -3 -1 -30 41 -59 95 -29 53 -84 140 -122
192 -117 159 -108 141 -80 159 141 91 441 370 648 601 169 188 502 656 620
872 142 259 266 610 324 923 18 97 22 158 22 320 1 198 1 202 -42 409 -47 225
-76 324 -127 426 -54 111 -60 130 -44 141 16 10 38 4 89 -21z m-9307 -15 c-1
-16 -25 -83 -52 -149 -59 -146 -73 -195 -118 -441 -55 -304 -55 -407 3 -721
53 -290 159 -583 316 -868 163 -298 571 -856 772 -1059 137 -138 323 -293 512
-426 l91 -63 -74 -107 c-41 -58 -103 -163 -139 -234 l-64 -129 -113 114 c-122
125 -209 236 -275 356 -57 104 -70 153 -81 317 -10 149 -15 175 -36 175 -23 0
-35 -61 -35 -185 0 -90 5 -141 20 -199 22 -84 20 -110 -12 -127 -33 -18 -125
-2 -195 31 -48 24 -88 58 -190 163 -118 123 -163 180 -152 192 3 2 40 -7 83
-20 102 -32 162 -40 171 -25 13 20 -34 56 -95 73 -32 9 -105 42 -160 74 -91
51 -108 65 -164 137 -106 137 -206 283 -206 300 0 20 25 20 102 0 65 -16 83
-13 52 11 -25 19 -117 63 -149 71 -42 10 -217 258 -279 394 -22 48 -26 100 -8
100 2 0 27 -14 55 -31 74 -45 162 -76 172 -59 6 10 -18 30 -91 73 -155 93
-243 244 -309 529 -17 73 -34 188 -28 188 9 0 84 -43 138 -79 33 -23 68 -41
78 -41 16 0 16 2 2 30 -9 17 -43 60 -76 97 -76 84 -112 136 -152 221 -31 64
-32 72 -30 182 3 201 42 440 77 469 17 14 21 8 30 -39 9 -48 65 -145 77 -133
6 6 12 75 15 154 6 167 14 208 62 304 93 188 241 337 391 396 57 22 67 20 64
-16z m-833 -1067 c8 -249 39 -541 76 -693 13 -55 24 -109 24 -121 0 -11 20
-87 44 -170 55 -186 59 -204 47 -204 -9 0 -71 148 -71 169 0 21 -42 121 -51
121 -55 0 117 -538 280 -875 143 -296 394 -689 603 -943 38 -46 75 -97 84
-114 17 -34 15 -69 -5 -76 -19 -6 -129 112 -291 313 -77 96 -145 175 -150 175
-63 0 134 -289 388 -569 77 -85 142 -174 142 -193 0 -21 -35 -1 -132 77 -58
47 -109 85 -112 85 -36 0 68 -133 199 -254 123 -114 146 -143 124 -157 -23
-14 -136 -10 -176 6 -22 9 -96 73 -176 153 -174 171 -242 251 -228 265 8 8 20
4 43 -13 35 -26 148 -43 148 -22 0 12 -117 88 -250 162 -117 66 -192 140 -289
287 -88 133 -92 154 -18 116 61 -31 177 -54 177 -35 0 4 -32 28 -71 52 -40 25
-125 84 -190 132 -107 80 -122 95 -167 170 -56 93 -132 245 -132 265 0 22 36
14 121 -27 124 -60 157 -52 72 17 -90 73 -190 180 -236 255 -39 62 -51 94 -76
204 -16 71 -41 172 -55 224 -14 52 -26 101 -26 108 0 29 66 -2 167 -79 35 -27
68 -49 74 -49 22 0 5 35 -54 107 -87 107 -122 161 -162 246 -47 99 -57 171
-39 278 18 105 51 223 74 269 34 67 246 350 262 350 4 0 8 -6 8 -12z m11039
-146 c118 -157 213 -391 214 -522 0 -140 -83 -316 -222 -473 -113 -129 -77
-132 85 -7 36 28 72 50 80 50 25 0 16 -76 -27 -240 -79 -303 -155 -432 -334
-560 -106 -76 -51 -79 103 -5 l94 45 -7 -33 c-15 -71 -184 -377 -208 -377 -7
0 -41 -23 -76 -50 -35 -27 -110 -80 -167 -116 -57 -37 -101 -71 -98 -76 9 -14
80 1 148 29 32 13 61 22 64 19 9 -9 -15 -55 -83 -157 -96 -145 -138 -186 -256
-253 -134 -76 -259 -157 -259 -169 0 -19 116 -2 145 21 28 23 55 29 55 13 0
-30 -340 -375 -402 -407 -39 -21 -189 -27 -195 -8 -2 6 62 80 142 164 147 153
200 219 193 241 -2 6 -40 -20 -83 -58 -88 -75 -153 -119 -162 -109 -15 15 42
99 138 204 159 175 217 242 256 302 20 30 49 73 65 95 37 52 64 103 72 138 12
50 -19 30 -85 -55 -87 -114 -290 -357 -328 -392 -22 -21 -34 -27 -42 -19 -13
13 -15 69 -2 85 6 7 57 72 115 144 211 264 475 684 596 949 142 311 292 787
263 834 -11 18 -12 16 -60 -134 -23 -71 -47 -134 -53 -140 -18 -17 0 90 28
164 48 128 123 581 139 841 3 52 8 115 11 140 l6 45 44 -48 c24 -26 66 -78 93
-115z m-10691 -1354 c62 -136 112 -251 112 -256 0 -6 27 -51 60 -101 33 -50
69 -110 81 -133 49 -96 267 -402 420 -590 96 -118 109 -142 86 -165 -23 -24
-44 -9 -85 57 -20 34 -99 149 -175 257 -223 318 -369 561 -493 818 -107 224
-178 427 -131 375 8 -8 64 -126 125 -262z m10337 240 c-39 -130 -192 -460
-306 -661 -91 -158 -310 -494 -399 -610 -25 -33 -68 -96 -97 -140 -53 -85 -85
-107 -98 -68 -9 29 13 65 111 182 244 291 467 646 639 1020 128 278 138 299
147 299 5 0 6 -10 3 -22z m-11101 -130 c8 -13 35 -90 61 -173 99 -315 247
-644 425 -945 50 -85 103 -177 117 -205 44 -87 179 -245 496 -581 166 -175
198 -225 94 -146 -320 241 -752 753 -943 1117 -62 120 -93 169 -101 161 -20
-19 122 -319 232 -491 155 -243 301 -420 575 -700 216 -221 246 -256 232 -281
-7 -12 -46 21 -203 171 -239 230 -267 251 -232 175 9 -19 105 -123 213 -230
108 -107 203 -206 209 -219 7 -13 21 -58 31 -100 22 -91 42 -144 116 -304 63
-136 64 -158 5 -128 -44 23 -179 124 -298 224 -110 92 -119 122 -38 129 65 5
51 29 -25 44 -117 24 -319 143 -377 222 l-22 30 82 7 c86 8 126 20 110 36 -8
8 -56 27 -233 91 -68 25 -125 70 -201 162 -80 97 -174 234 -166 243 4 4 29 -4
55 -16 26 -13 73 -26 105 -29 89 -8 74 18 -49 82 -88 46 -192 131 -233 189
-62 90 -150 283 -195 425 -41 130 -32 159 34 111 29 -22 131 -61 139 -54 2 3
-25 35 -60 73 -54 56 -73 86 -109 172 l-45 105 0 130 c1 145 21 250 75 378 29
70 82 147 100 147 5 0 16 -10 24 -22z m11784 -1 c32 -34 89 -164 118 -269 31
-115 42 -264 24 -339 -26 -107 -112 -273 -168 -323 -23 -20 -29 -46 -12 -46 5
0 43 17 84 37 42 20 79 34 83 29 4 -4 -5 -55 -21 -114 -36 -141 -160 -393
-229 -469 -64 -69 -171 -149 -226 -168 -43 -15 -91 -50 -91 -67 0 -16 86 -8
147 14 35 12 65 19 69 16 24 -24 -193 -289 -291 -354 -27 -19 -103 -55 -167
-80 -164 -64 -166 -72 -26 -89 l92 -10 -50 -49 c-91 -91 -244 -177 -354 -199
-33 -7 -61 -17 -62 -22 0 -6 27 -19 61 -30 33 -11 60 -23 58 -27 -7 -20 -361
-285 -424 -317 -77 -39 -82 -23 -21 70 43 66 126 273 148 369 7 30 19 69 27
85 8 17 90 104 183 195 168 166 250 259 250 286 0 23 -17 10 -185 -145 -206
-190 -255 -229 -255 -202 0 16 60 84 269 301 245 255 335 365 483 590 103 155
269 468 283 533 11 56 -14 24 -79 -100 -169 -318 -471 -708 -757 -976 -116
-108 -247 -217 -261 -217 -20 0 3 29 158 196 365 392 445 497 644 849 177 313
306 609 386 882 57 196 66 209 112 160z m274 -1217 c57 -86 71 -144 71 -305 0
-105 -3 -130 -26 -198 -37 -105 -64 -157 -156 -295 -89 -133 -93 -137 -204
-212 -45 -30 -84 -64 -86 -74 -8 -46 101 4 233 105 26 21 28 21 23 3 -4 -10
-11 -41 -17 -67 -36 -164 -240 -414 -402 -491 -40 -19 -119 -48 -176 -64 -182
-53 -198 -86 -38 -80 53 2 96 -1 96 -5 0 -13 -70 -120 -99 -150 -61 -66 -260
-160 -372 -176 -35 -5 -77 -14 -93 -20 -38 -15 -24 -30 60 -66 l65 -28 -61
-38 c-116 -74 -136 -81 -259 -91 -64 -5 -120 -13 -126 -19 -7 -7 1 -20 23 -40
17 -16 32 -33 32 -38 0 -20 -232 -118 -238 -101 -2 5 7 28 19 52 18 35 22 58
21 128 -1 47 2 90 6 96 4 5 41 28 83 51 214 114 477 315 441 337 -12 7 -61
-20 -207 -113 -128 -82 -155 -97 -278 -156 -55 -26 -82 -34 -89 -27 -25 25 4
49 213 171 244 143 725 546 780 652 10 21 39 50 68 68 76 49 190 184 275 325
39 65 39 65 28 84 -15 22 -41 2 -104 -82 -68 -89 -426 -453 -582 -590 -136
-119 -291 -233 -476 -348 -184 -115 -324 -188 -362 -188 -61 0 -23 34 144 129
267 153 556 381 867 686 372 365 525 574 726 990 50 105 97 205 105 223 7 17
15 32 19 32 4 0 28 -31 53 -70z m-12238 -132 c139 -294 291 -540 452 -728 337
-397 798 -787 1204 -1023 104 -60 136 -88 126 -112 -5 -13 -18 -9 -83 24 -43
21 -139 76 -213 121 -74 45 -155 94 -179 108 -25 13 -124 83 -220 155 -150
112 -213 168 -427 382 -138 137 -281 289 -317 336 -70 91 -89 106 -106 85 -8
-9 -5 -23 8 -49 55 -108 254 -343 310 -366 17 -8 35 -26 42 -44 40 -98 506
-488 787 -659 206 -125 222 -137 222 -158 0 -26 -20 -25 -78 4 -26 13 -58 27
-72 31 -14 4 -65 33 -115 63 -325 199 -315 194 -315 169 0 -34 185 -178 373
-289 65 -38 125 -80 133 -93 9 -13 20 -57 25 -97 12 -86 26 -137 46 -160 18
-21 3 -31 -34 -22 -41 10 -175 72 -195 91 -17 15 -16 18 20 49 26 22 34 36 27
43 -6 6 -58 14 -115 17 -58 4 -122 13 -143 20 -34 12 -187 101 -187 109 0 1
34 19 75 38 41 20 75 39 75 42 0 11 -57 27 -128 36 -51 6 -93 18 -140 42 -37
19 -83 38 -102 42 -45 10 -151 111 -196 188 -19 32 -34 59 -34 60 0 1 45 0
101 -1 175 -6 155 21 -67 92 -161 52 -238 97 -328 190 -130 134 -207 267 -230
398 l-7 38 83 -60 c81 -59 130 -81 156 -72 28 10 4 39 -71 88 -90 59 -130 95
-160 144 -12 19 -48 72 -80 117 -32 45 -68 106 -79 135 -61 158 -60 150 -56
337 3 194 10 216 80 297 39 45 32 54 132 -158z m2097 -87 c121 -31 187 -67
254 -139 107 -115 169 -177 227 -227 l58 -50 -25 -90 c-43 -156 -57 -253 -62
-452 -3 -106 -8 -193 -10 -193 -3 0 -53 35 -112 78 -58 43 -141 102 -183 130
-160 108 -331 353 -390 558 -30 105 -33 291 -5 342 34 63 116 77 248 43z
m8089 4 c16 -8 39 -29 52 -47 21 -30 23 -43 22 -148 -2 -193 -59 -343 -198
-527 -91 -120 -187 -212 -292 -278 -43 -27 -82 -51 -86 -53 -5 -2 -8 32 -8 75
0 162 -34 366 -91 546 l-31 98 88 92 c129 133 180 176 250 209 101 47 237 63
294 33z m-8281 -814 c23 -12 85 -62 135 -109 121 -114 252 -212 404 -302 l122
-73 0 -45 c0 -42 -1 -44 -24 -38 -14 3 -28 1 -31 -4 -9 -15 21 -59 49 -72 18
-8 26 -23 35 -67 6 -31 14 -65 17 -76 4 -17 0 -20 -28 -20 -47 0 -42 -22 12
-63 41 -31 48 -44 81 -138 24 -72 32 -104 23 -104 -29 0 -164 32 -237 56 -43
14 -183 79 -312 144 -178 90 -253 133 -316 185 -46 37 -93 71 -105 75 -13 5
-24 21 -28 41 -3 18 -15 42 -26 54 -23 24 -112 202 -134 268 -37 112 -29 232
21 281 32 32 46 35 183 32 98 -2 121 -5 159 -25z m8592 12 c50 -19 78 -72 79
-144 0 -82 -71 -294 -120 -356 -11 -14 -20 -34 -20 -44 0 -10 -9 -23 -20 -29
-11 -6 -23 -22 -26 -36 -4 -14 -22 -36 -42 -49 -19 -13 -69 -53 -111 -89 -105
-90 -419 -248 -648 -327 -46 -15 -83 -26 -83 -24 0 2 15 47 34 102 58 166 97
340 121 535 6 46 8 49 78 94 124 80 213 151 320 252 123 117 154 130 299 131
69 1 110 -4 139 -16z m-10193 -643 c242 -283 441 -459 695 -616 107 -67 527
-287 600 -314 28 -11 75 -24 106 -30 70 -14 244 -97 238 -113 -6 -18 -44 -11
-178 34 -224 74 -683 291 -864 407 -93 61 -113 66 -91 23 27 -51 161 -164 296
-250 172 -108 346 -194 550 -271 91 -34 181 -70 200 -81 l35 -18 -35 0 c-19
-1 -82 10 -140 24 -177 42 -183 33 -33 -51 59 -32 107 -63 108 -69 0 -5 -12
-11 -27 -13 -16 -2 -28 -7 -28 -13 0 -11 123 -73 165 -83 43 -11 75 -34 75
-55 0 -25 -75 -91 -103 -91 -13 0 -57 11 -98 25 -41 14 -153 48 -249 76 -185
53 -297 99 -343 144 -35 34 -32 56 11 67 39 10 52 36 29 53 -9 7 -59 15 -109
19 -183 14 -270 49 -410 166 -101 84 -228 216 -228 236 0 15 46 5 113 -25 74
-32 134 -30 121 4 -3 7 -60 55 -126 106 -170 130 -214 177 -270 290 -90 181
-126 326 -111 449 8 67 21 64 101 -30z m11586 30 c8 -63 0 -137 -26 -220 -76
-249 -128 -331 -301 -471 -61 -50 -127 -104 -144 -120 -73 -63 -15 -83 96 -33
56 25 91 31 91 14 0 -24 -157 -179 -262 -258 -136 -102 -217 -132 -363 -132
-124 0 -147 -6 -143 -33 3 -22 34 -42 81 -52 15 -3 27 -12 27 -20 0 -38 -162
-122 -317 -164 -59 -16 -162 -48 -228 -71 -176 -60 -237 -55 -283 23 -20 34
-25 30 127 97 58 25 106 50 108 56 2 7 -13 16 -33 21 l-37 8 116 65 c162 89
159 94 -28 55 -189 -39 -243 -31 -100 15 220 71 593 244 746 346 69 46 252
212 270 245 15 30 -9 24 -77 -17 -246 -151 -443 -251 -664 -337 -265 -103
-380 -141 -391 -130 -23 23 104 85 278 138 99 30 86 24 360 168 433 227 669
406 934 708 72 82 137 149 144 149 7 0 15 -20 19 -50z m-9589 -511 c116 -39
268 -86 339 -104 l130 -33 23 -47 c22 -42 22 -46 6 -41 -50 14 -264 49 -269
43 -22 -22 117 -79 263 -107 l62 -12 40 -71 41 -70 -93 7 c-60 4 -120 15 -167
32 -40 14 -75 23 -78 20 -25 -26 183 -118 309 -137 41 -6 79 -13 84 -14 6 -1
25 -23 43 -49 l33 -46 -123 -1 c-470 -3 -538 4 -743 72 -225 75 -378 185 -439
314 -35 74 -40 115 -22 178 22 77 52 102 149 126 121 30 167 24 412 -60z
m7920 56 c84 -22 100 -36 120 -99 42 -133 -22 -279 -164 -375 -122 -83 -292
-154 -443 -185 -69 -14 -322 -33 -526 -38 -104 -3 -103 -5 -46 71 33 44 43 50
103 66 36 10 98 33 136 52 120 58 131 88 19 49 -38 -13 -90 -26 -116 -29 l-47
-6 47 78 47 79 96 31 c91 29 131 53 115 68 -4 4 -42 0 -84 -9 -42 -8 -78 -14
-80 -13 -2 2 8 25 22 52 24 48 27 50 93 68 112 29 376 117 401 133 12 8 37 18
55 23 44 11 179 3 252 -16z m-7037 -835 l23 -30 -24 -9 c-14 -5 -74 -14 -133
-20 -118 -11 -178 -27 -167 -43 4 -8 69 -9 198 -5 184 5 215 2 215 -23 0 -4
-42 -21 -92 -39 -115 -39 -129 -47 -108 -62 18 -12 175 -4 233 12 33 9 42 8
58 -7 10 -9 19 -21 19 -26 0 -5 -31 -29 -70 -53 -74 -49 -224 -113 -465 -201
-196 -72 -337 -140 -405 -195 -208 -170 -201 -167 -303 -129 -65 24 -88 47
-122 122 -50 109 -45 159 31 316 65 134 136 203 281 272 126 61 213 85 355
100 57 5 170 17 252 25 83 9 152 18 155 20 14 15 50 2 69 -25z m5984 0 c338
-33 374 -39 493 -84 214 -81 349 -227 410 -439 20 -70 15 -105 -26 -193 -39
-82 -69 -106 -151 -123 -79 -15 -76 -16 -206 83 -154 118 -210 155 -254 167
-24 6 -67 23 -98 39 -30 15 -107 44 -170 65 -129 42 -283 108 -378 162 l-64
35 29 30 28 29 100 -6 c103 -6 148 3 115 25 -8 5 -44 19 -79 31 l-63 21 26 26
26 27 150 -4 c101 -2 150 1 150 8 0 13 -52 27 -162 42 l-87 12 22 28 c26 32
38 34 189 19z m-7259 -87 c-7 -2 -19 -2 -25 0 -7 3 -2 5 12 5 14 0 19 -2 13
-5z m8300 0 c-7 -2 -21 -2 -30 0 -10 3 -4 5 12 5 17 0 24 -2 18 -5z m-8144
-28 c-9 -9 -23 -13 -32 -9 -28 10 -19 24 15 24 29 0 31 -2 17 -15z m8011 6 c0
-15 -16 -22 -34 -15 -25 9 -19 24 9 24 14 0 25 -4 25 -9z m-6552 -253 c7 -7
12 -17 12 -23 0 -12 -102 -76 -205 -129 -82 -42 -98 -53 -114 -84 -10 -18 -9
-23 4 -28 24 -10 51 -1 205 70 l145 66 -43 -39 c-23 -22 -83 -67 -132 -101
-51 -34 -88 -66 -84 -72 13 -21 95 1 209 55 66 32 129 70 146 88 l30 32 26
-26 27 -26 -70 -68 c-38 -38 -139 -120 -225 -184 -99 -75 -179 -143 -220 -190
-195 -222 -311 -338 -371 -369 -45 -24 -118 -26 -208 -4 -90 21 -132 51 -166
119 -24 50 -27 68 -26 143 1 173 61 306 168 377 70 47 166 91 235 109 64 17
300 125 489 225 74 39 140 71 146 71 5 0 15 -5 22 -12z m5337 -135 c38 -24 85
-46 105 -49 19 -4 76 -25 125 -46 50 -22 124 -51 165 -64 160 -54 258 -131
318 -250 41 -82 55 -152 50 -243 -4 -63 -11 -88 -38 -140 -19 -35 -44 -70 -57
-78 -21 -14 -134 -34 -255 -46 l-47 -4 -221 233 c-180 190 -247 253 -358 338
-75 58 -167 132 -204 166 l-68 61 27 23 26 23 55 -33 c61 -37 199 -93 251
-101 51 -9 37 12 -63 92 -48 38 -82 71 -76 73 6 2 62 -17 124 -42 123 -50 144
-54 152 -31 10 24 -9 39 -148 120 l-130 77 23 24 22 24 76 -42 c42 -23 107
-61 146 -85z m-5025 -201 c0 -11 -100 -106 -212 -201 -136 -115 -132 -130 18
-57 49 24 115 64 147 91 90 73 78 46 -15 -35 -137 -118 -158 -140 -158 -155 0
-20 13 -19 63 6 67 35 146 91 232 168 74 65 105 84 105 63 0 -10 -61 -98 -140
-202 -141 -185 -206 -303 -321 -581 -40 -96 -78 -184 -86 -196 -16 -24 -58
-42 -159 -68 -82 -21 -102 -17 -167 30 -92 68 -146 179 -133 273 16 116 146
313 313 471 128 123 306 270 422 350 73 50 91 59 91 43z m4596 -104 c131 -95
361 -309 478 -444 68 -80 162 -248 171 -310 8 -49 -23 -148 -66 -211 -35 -51
-123 -113 -160 -113 -27 0 -106 21 -175 46 -50 18 -68 49 -172 295 -121 286
-151 339 -319 552 -75 95 -91 122 -82 133 18 22 27 18 93 -43 91 -85 255 -187
272 -170 12 12 -19 49 -86 103 -64 51 -83 74 -62 74 4 0 23 -11 43 -24 33 -23
126 -65 177 -80 42 -13 23 13 -55 76 -109 88 -224 199 -217 210 9 14 21 7 160
-94z m-171 -38 c16 -16 25 -30 21 -30 -13 0 -66 41 -66 51 0 17 16 9 45 -21z
m-133 -247 c130 -163 133 -168 187 -300 27 -65 66 -158 87 -208 31 -72 38
-101 37 -146 -3 -104 -67 -196 -155 -219 -45 -13 -134 -6 -181 12 -41 16 -55
52 -92 245 -42 218 -61 273 -147 442 -45 88 -65 138 -58 145 13 13 131 -109
206 -214 66 -93 90 -106 88 -50 -2 49 -36 116 -116 228 -121 170 -81 144 98
-65 114 -132 131 -149 140 -140 8 7 -77 164 -155 287 -39 62 -71 114 -71 116
0 19 53 -35 132 -133z m-4121 -7 c-72 -118 -141 -247 -141 -266 0 -20 20 1
140 145 107 129 180 201 180 178 0 -5 -28 -45 -61 -88 -90 -117 -181 -317
-138 -303 8 2 61 62 119 133 95 116 174 195 184 184 2 -2 -29 -74 -69 -159
-90 -193 -118 -277 -150 -460 -15 -80 -34 -158 -44 -175 -25 -44 -65 -60 -147
-60 -59 0 -80 5 -130 30 -68 35 -79 53 -94 152 -10 65 -9 77 14 144 34 104
134 320 187 406 54 89 211 281 217 265 2 -7 -28 -63 -67 -126z m481 -131 c0
-5 -5 -11 -11 -13 -6 -2 -11 4 -11 13 0 9 5 15 11 13 6 -2 11 -8 11 -13z m53
-88 c-20 -47 -20 -97 0 -97 8 0 26 20 41 46 l27 45 22 -21 22 -21 -29 -54
c-39 -73 -71 -168 -112 -334 -50 -201 -79 -252 -170 -298 -60 -30 -77 -26
-138 32 l-47 46 25 107 c65 282 105 416 149 503 14 27 30 47 35 44 4 -3 -2
-40 -16 -83 -27 -89 -31 -137 -9 -145 19 -8 54 35 106 130 68 125 90 156 100
146 6 -6 4 -23 -6 -46z m3112 -113 c31 -58 65 -110 75 -115 43 -23 49 19 18
126 -42 146 -6 122 50 -33 34 -93 78 -263 110 -425 l22 -109 -22 -23 c-12 -13
-41 -33 -65 -46 -38 -20 -45 -21 -75 -9 -46 19 -122 97 -146 150 -12 25 -31
99 -43 165 -26 137 -52 221 -88 284 l-25 43 21 21 c16 17 23 19 33 9 22 -22
38 -13 38 21 0 33 16 60 31 51 5 -3 34 -52 66 -110z"/>
<path d="M10111 5886 c-69 -118 -125 -193 -187 -252 -45 -42 -55 -70 -29 -80
33 -13 72 10 136 77 80 83 156 225 166 307 9 83 -16 68 -86 -52z"/>
<path d="M2600 5956 c0 -53 36 -156 74 -212 79 -117 192 -213 232 -197 27 10
13 40 -50 105 -35 37 -103 128 -151 202 -48 75 -91 136 -96 136 -5 0 -9 -15
-9 -34z"/>
<path d="M1500 4700 c0 -26 107 -139 159 -168 22 -13 41 -19 41 -13 0 25 -166
201 -190 201 -6 0 -10 -9 -10 -20z"/>
<path d="M11183 4626 c-93 -94 -114 -130 -71 -118 34 9 188 165 188 190 0 12
-6 22 -12 22 -7 0 -54 -42 -105 -94z"/>
<path d="M2343 5303 c-14 -49 -7 -224 10 -285 21 -70 86 -144 191 -216 92 -64
106 -70 106 -45 0 10 -30 52 -66 93 -125 142 -153 198 -174 350 -16 116 -50
166 -67 103z"/>
<path d="M2464 5176 c-8 -22 24 -81 72 -134 35 -39 43 -44 49 -30 8 20 -41
133 -69 161 -21 21 -45 22 -52 3z"/>
<path d="M10423 5328 c-15 -18 -20 -40 -38 -143 -21 -124 -64 -209 -164 -319
-45 -50 -81 -93 -81 -98 0 -29 120 30 198 98 95 84 151 241 133 382 -8 67 -30
103 -48 80z"/>
<path d="M10275 5158 c-15 -17 -38 -56 -51 -86 -41 -92 -28 -108 31 -39 63 73
96 157 61 157 -8 0 -26 -14 -41 -32z"/>
<path d="M2010 4555 c-36 -44 -20 -168 37 -277 73 -139 294 -307 353 -267 13
8 11 13 -10 27 -55 38 -149 127 -217 203 -77 88 -93 126 -93 217 0 82 -9 112
-35 112 -12 0 -28 -7 -35 -15z"/>
<path d="M2220 4330 c31 -61 88 -120 116 -120 14 0 24 6 24 14 0 15 -137 146
-152 146 -5 0 1 -18 12 -40z"/>
<path d="M10726 4524 c-3 -26 -6 -65 -6 -86 0 -77 -51 -163 -161 -271 -56 -53
-114 -104 -130 -112 -29 -16 -41 -55 -16 -55 23 0 116 48 170 89 64 47 138
142 180 229 52 111 48 252 -8 252 -19 0 -23 -7 -29 -46z"/>
<path d="M10509 4303 c-68 -65 -84 -93 -54 -93 23 0 97 72 123 119 34 60 10
51 -69 -26z"/>
<path d="M2180 3448 c0 -57 39 -118 119 -187 69 -60 118 -82 231 -105 125 -25
200 -31 200 -17 0 12 -49 36 -208 102 -46 19 -95 44 -108 57 -14 12 -39 29
-57 39 -18 9 -65 48 -104 86 l-73 70 0 -45z"/>
<path d="M2380 3432 c0 -6 17 -21 38 -34 20 -12 53 -38 74 -56 29 -26 42 -31
62 -26 35 8 41 22 22 43 -37 41 -196 100 -196 73z"/>
<path d="M10550 3428 c-95 -88 -217 -165 -348 -219 -64 -27 -120 -54 -126 -60
-16 -17 152 -5 234 16 89 23 130 46 204 116 84 78 108 117 104 167 l-3 40 -65
-60z"/>
<path d="M10349 3425 c-56 -20 -114 -52 -129 -70 -12 -14 -12 -18 1 -26 24
-15 65 -10 84 11 10 11 40 34 66 51 72 46 60 64 -22 34z"/>
<path d="M2534 2349 c-15 -24 92 -116 112 -96 14 14 -11 61 -45 84 -37 25 -56
29 -67 12z"/>
<path d="M2450 2271 c0 -36 7 -49 46 -91 52 -56 101 -78 134 -60 13 7 19 17
16 27 -3 8 -6 16 -6 18 0 2 -24 17 -54 34 -30 17 -72 50 -95 72 l-41 41 0 -41z"/>
<path d="M10215 2348 c-32 -17 -75 -61 -75 -75 0 -39 83 -8 116 43 25 38 2 56
-41 32z"/>
<path d="M10315 2277 c-16 -16 -60 -49 -97 -73 -68 -44 -79 -59 -56 -82 19
-19 40 -14 96 23 60 41 82 71 92 125 9 47 5 48 -35 7z"/>
<path d="M2890 1831 c-12 -24 -5 -135 12 -181 12 -32 84 -107 122 -127 31 -16
66 -13 146 14 105 35 84 51 -67 52 -99 1 -102 2 -131 30 -32 32 -52 95 -52
163 0 57 -14 79 -30 49z"/>
<path d="M3043 1753 c-19 -7 -16 -48 6 -74 23 -28 34 -21 34 21 0 34 -21 60
-40 53z"/>
<path d="M9878 1771 c-3 -96 -15 -123 -72 -165 -24 -19 -40 -21 -131 -19 -57
2 -107 -1 -110 -6 -10 -18 45 -49 106 -60 55 -9 65 -8 103 10 22 12 52 31 64
43 55 49 91 166 72 235 -18 67 -28 55 -32 -38z"/>
<path d="M9727 1753 c-25 -6 -20 -76 5 -81 24 -5 54 54 37 74 -6 8 -14 13 -18
13 -3 -1 -14 -3 -24 -6z"/>
<path d="M3550 1249 c44 -37 105 -58 123 -40 9 9 7 16 -12 31 -29 21 -87 40
-122 40 -23 -1 -22 -2 11 -31z"/>
<path d="M3464 1219 c9 -48 65 -126 103 -144 47 -23 134 -20 167 6 17 14 26
29 24 43 -3 18 -12 22 -68 29 -76 9 -110 21 -165 57 -71 47 -69 47 -61 9z"/>
<path d="M9165 1257 c-45 -25 -59 -57 -25 -57 28 0 78 22 119 54 l35 26 -45 0
c-27 0 -59 -9 -84 -23z"/>
<path d="M9277 1215 c-56 -40 -94 -52 -189 -60 -38 -4 -68 -11 -68 -17 0 -5
15 -25 34 -44 30 -30 40 -34 88 -34 70 0 124 31 159 90 28 47 45 100 32 99 -5
0 -30 -16 -56 -34z"/>
<path d="M8585 1181 c-28 -12 -48 -38 -40 -51 9 -14 78 -13 99 3 43 31 -6 70
-59 48z"/>
<path d="M8599 1036 c-96 -29 -102 -32 -89 -56 24 -45 131 -31 188 26 58 58
27 68 -99 30z"/>
<path d="M4135 1186 c-38 -27 8 -66 80 -66 47 0 51 14 13 43 -44 33 -70 40
-93 23z"/>
<path d="M4075 1060 c-9 -14 20 -55 57 -83 34 -25 121 -28 145 -4 25 24 7 38
-85 63 -42 11 -84 24 -93 28 -10 4 -20 2 -24 -4z"/>
<path d="M4683 976 c-32 -24 -74 -61 -93 -81 l-35 -38 30 7 c66 16 185 106
185 140 0 26 -25 19 -87 -28z"/>
<path d="M8010 1018 c0 -19 113 -123 150 -138 24 -10 34 -10 43 -1 13 14 1 26
-107 107 -60 44 -86 54 -86 32z"/>
</g>
</svg>
